<mxfile host="app.diagrams.net" modified="2023-11-25T11:15:14.619Z" agent="Mozilla/5.0 (Windows NT 10.0; Win64; x64) AppleWebKit/537.36 (KHTML, like Gecko) Chrome/119.0.0.0 Safari/537.36 Edg/119.0.0.0" version="22.1.4" etag="ziIU4DnF0x2xTmC0xm3O" type="github">
  <diagram name="第 1 页" id="a5G-2EuOFCbzKIGAZH62">
    <mxGraphModel>
      <root>
        <mxCell id="0" />
        <mxCell id="1" parent="0" />
      </root>
    </mxGraphModel>
  </diagram>
</mxfile>
